<?xml version="1.0" standalone="no"?>
<!DOCTYPE svg PUBLIC "-//W3C//DTD SVG 20010904//EN"
 "http://www.w3.org/TR/2001/REC-SVG-20010904/DTD/svg10.dtd">
<svg version="1.0" xmlns="http://www.w3.org/2000/svg"
 width="382.000000pt" height="238.000000pt" viewBox="0 0 382.000000 238.000000"
 preserveAspectRatio="xMidYMid meet">

<g transform="translate(0.000000,238.000000) scale(0.100000,-0.100000)"
fill="#000000" stroke="none">
<path d="M2234 2224 c-15 -22 -16 -46 -10 -207 7 -200 2 -227 -43 -212 -27 8
-40 37 -84 195 -20 69 -40 137 -46 153 -22 57 -71 42 -71 -23 0 -21 13 -112
30 -202 36 -198 38 -250 9 -279 -29 -29 -69 -20 -199 48 -118 61 -140 62 -140
6 0 -29 9 -43 57 -89 55 -52 57 -53 77 -36 21 17 21 17 2 -6 l-20 -22 87 -83
c69 -65 93 -95 115 -147 49 -110 51 -141 32 -665 -10 -264 -18 -481 -19 -482
0 -2 -82 -3 -181 -3 -166 0 -180 1 -180 18 0 9 16 128 35 262 41 283 52 312
183 499 107 151 152 222 152 238 0 30 -39 9 -100 -52 -67 -68 -102 -81 -108
-39 -2 11 22 84 53 161 52 133 59 173 30 173 -21 0 -41 -32 -85 -132 -46 -105
-60 -124 -86 -114 -14 5 -16 16 -10 69 30 275 29 297 -10 297 -26 0 -38 -46
-49 -193 -13 -167 -22 -188 -61 -144 -13 15 -24 38 -24 50 0 12 -9 72 -21 132
-25 135 -43 163 -67 110 -8 -16 -9 -82 -6 -207 7 -218 3 -230 -64 -210 -22 7
-62 28 -89 47 -102 73 -133 80 -133 27 0 -20 26 -60 99 -150 54 -67 106 -141
116 -164 31 -78 29 -172 -13 -433 l-38 -240 -652 -3 -652 -2 0 -70 0 -70 1865
0 1865 0 0 70 0 70 -705 0 -705 0 5 483 c4 265 11 511 16 546 6 35 21 90 33
121 32 79 47 298 21 323 -9 10 -12 17 -6 17 21 0 33 -45 39 -142 l5 -99 57
108 c31 59 80 152 108 206 53 100 60 121 42 132 -21 13 -49 -7 -91 -63 -56
-76 -100 -122 -116 -122 -8 0 -18 11 -23 24 -7 19 2 67 35 198 25 95 45 186
45 201 0 25 -3 28 -27 25 -27 -3 -31 -12 -83 -163 -47 -136 -58 -160 -77 -163
-13 -2 -25 4 -31 15 -6 10 -11 104 -13 209 -3 143 -7 195 -18 207 -19 24 -38
21 -57 -9z m15 -674 c18 -9 56 -88 48 -96 -2 -3 -12 15 -21 39 -9 24 -27 49
-39 55 -12 6 -18 11 -14 11 5 1 16 -3 26 -9z m80 -170 c12 -33 29 -66 37 -75
9 -9 11 -15 4 -15 -10 0 -50 78 -65 128 -13 46 3 20 24 -38z m-168 -72 c17
-18 42 -48 57 -67 14 -18 35 -37 46 -41 16 -7 17 -9 5 -9 -9 -1 -43 29 -74 65
-32 36 -68 70 -79 74 -18 8 -18 9 -3 9 10 1 32 -14 48 -31z m-644 -140 c-3 -8
-6 -5 -6 6 -1 11 2 17 5 13 3 -3 4 -12 1 -19z m-10 -60 c-3 -7 -5 -2 -5 12 0
14 2 19 5 13 2 -7 2 -19 0 -25z m0 -160 c-2 -13 -4 -5 -4 17 -1 22 1 32 4 23
2 -10 2 -28 0 -40z m10 -120 c-2 -13 -4 -5 -4 17 -1 22 1 32 4 23 2 -10 2 -28
0 -40z m10 -120 c-2 -13 -4 -5 -4 17 -1 22 1 32 4 23 2 -10 2 -28 0 -40z m10
-120 c-2 -13 -4 -5 -4 17 -1 22 1 32 4 23 2 -10 2 -28 0 -40z m10 -120 c-2
-13 -4 -5 -4 17 -1 22 1 32 4 23 2 -10 2 -28 0 -40z m10 -115 c-3 -10 -5 -2
-5 17 0 19 2 27 5 18 2 -10 2 -26 0 -35z m10 -100 c-3 -10 -5 -2 -5 17 0 19 2
27 5 18 2 -10 2 -26 0 -35z"/>
</g>
</svg>
